<?xml version="1.0" standalone="no"?>
<!DOCTYPE svg PUBLIC "-//W3C//DTD SVG 20010904//EN"
 "http://www.w3.org/TR/2001/REC-SVG-20010904/DTD/svg10.dtd">
<svg version="1.0" xmlns="http://www.w3.org/2000/svg"
 width="260.000000pt" height="260.000000pt" viewBox="0 0 260.000000 260.000000"
 preserveAspectRatio="xMidYMid meet">
<metadata>
Created by potrace 1.11, written by Peter Selinger 2001-2013
</metadata>
<g transform="translate(0.000000,260.000000) scale(0.100000,-0.100000)"
fill="#000000" stroke="none">
<path d="M80 1300 l0 -1220 1220 0 1220 0 0 1220 0 1220 -1220 0 -1220 0 0
-1220z m1352 782 c103 -48 175 -138 198 -247 42 -203 -126 -407 -335 -408 -57
0 -82 6 -136 30 -109 50 -173 129 -205 253 -14 54 -14 66 2 127 55 226 276
340 476 245z m-674 12 c137 -57 179 -242 78 -352 -36 -41 -77 -56 -166 -62
l-85 -5 -3 -122 -3 -123 -69 0 -70 0 0 340 0 340 140 0 c105 0 150 -4 178 -16z
m1312 -5 c88 -40 123 -97 124 -200 0 -57 -4 -74 -30 -115 -20 -33 -43 -55 -72
-69 -23 -11 -42 -23 -42 -26 0 -4 41 -59 90 -122 50 -64 90 -118 90 -121 0 -3
-40 -6 -89 -6 l-88 0 -79 119 c-43 66 -82 117 -86 114 -5 -2 -8 -56 -8 -119
l0 -114 -70 0 -70 0 0 340 0 340 143 0 c121 0 149 -3 187 -21z m-1090 -1044
l0 -65 -95 0 -95 0 0 -270 0 -270 -75 0 -75 0 0 270 0 270 -95 0 -95 0 0 65 0
65 265 0 265 0 0 -65z m473 -85 c115 -286 180 -445 193 -474 8 -16 14 -33 14
-38 0 -4 -35 -8 -79 -8 l-79 0 -6 33 c-4 17 -15 47 -24 66 l-17 33 -122 0
c-154 -1 -143 0 -143 -12 0 -5 -9 -34 -21 -65 l-20 -55 -75 0 c-43 0 -74 4
-74 10 0 6 22 63 49 128 26 64 86 211 132 325 l83 208 65 -3 66 -3 58 -145z
m427 -120 l0 -270 120 0 120 0 0 -65 0 -65 -195 0 -195 0 0 335 0 335 75 0 75
0 0 -270z"/>
<path d="M1218 1956 c-76 -33 -122 -104 -122 -188 -1 -47 4 -64 30 -100 75
-107 198 -127 290 -46 116 102 91 274 -48 333 -43 18 -112 18 -150 1z"/>
<path d="M580 1890 l0 -100 53 0 c60 0 89 16 113 61 19 37 11 78 -21 113 -21
22 -32 26 -85 26 l-60 0 0 -100z"/>
<path d="M1882 1893 l3 -98 53 -3 c49 -3 56 0 87 31 46 46 48 91 6 136 -26 28
-35 31 -90 31 l-62 0 3 -97z"/>
<path d="M1323 918 c-14 -19 -73 -187 -73 -209 0 -18 6 -20 78 -17 92 4 90 -2
39 141 -24 69 -37 93 -44 85z"/>
</g>
</svg>
